# Created with Anim8or 1.00
# Object "HighPoly":

mtllib Tile00.mtl

# Shape "mesh01":
g mesh01
# No. points 24:
v 5.4414 0.11308 0
v -5.4414 0.11309 0
v 5.4414 4.2182 0
v -5.4414 4.2182 0
v 2.7207 0.11308 -4.7124
v -2.7207 0.11309 -4.7124
v 2.7207 4.2182 -4.7125
v -2.7207 4.2182 -4.7124
v 2.7207 0.11308 4.7124
v -2.7207 0.11309 4.7124
v 2.7207 4.2182 4.7124
v -2.7207 4.2182 4.7124
v 2.6506 -0.02362 4.591
v -2.6506 -0.02362 4.591
v 5.3012 -0.02362 0
v -5.3012 -0.02362 0
v 2.6506 -0.02362 -4.591
v -2.6506 -0.02362 -4.591
v 2.6506 4.3549 -4.591
v -2.6506 4.3549 -4.591
v 5.3012 4.3549 0
v -5.3012 4.3549 0
v 2.6506 4.3549 4.591
v -2.6506 4.3549 4.591

# No. normals 174:
vn 0.86603 0 -0.50000
vn -0.86603 0 -0.50000
vn 0.86603 0 0.50000
vn -0.86603 0 0.50000
vn 0 0 1
vn -0.00002 -0.00002 -1
vn 0.64752 -0.66405 -0.37384
vn -0.64754 -0.66402 -0.37385
vn 0.64750 0.66408 -0.37382
vn -0.64750 0.66408 -0.37383
vn 0.64752 -0.66405 0.37384
vn -0.64754 -0.66402 0.37385
vn 0.64752 0.66405 0.37384
vn -0.64752 0.66405 0.37384
vn 0 -0.66402 0.74771
vn 0 0.66402 0.74771
vn 0 -0.66402 -0.74771
vn 0 0.66433 -0.74744
vn 0 -1 0
vn 0 1 0
vn 0.91574 -0.40177 0
vn -0.91575 -0.40175 0
vn 0.91574 0.40178 0.00001
vn -0.91574 0.40178 0
vn 0.45786 -0.40177 -0.79306
vn -0.45788 -0.40176 -0.79306
vn 0.45788 0.40187 -0.79300
vn -0.45788 0.40187 -0.79300
vn 0.45787 -0.40176 0.79306
vn -0.45788 -0.40175 0.79306
vn 0.45787 0.40176 0.79306
vn -0.45787 0.40176 0.79306
vn 0.34907 -0.71595 0.60462
vn 0 -1 0
vn -0.34908 -0.71594 0.60463
vn 0 -1 0
vn 0.69814 -0.71596 0
vn 0 -1 0
vn -0.69817 -0.71594 0
vn 0 -1 0
vn 0.34907 -0.71595 -0.60462
vn 0 -1 0
vn -0.34908 -0.71594 -0.60463
vn 0 -1 0
vn 0.34905 0.71611 -0.60444
vn 0 1 0
vn -0.34905 0.71611 -0.60445
vn 0 1 0
vn 0.69812 0.71598 0.00001
vn 0 1 0
vn -0.69812 0.71598 0.00001
vn 0 1 0
vn 0.34907 0.71595 0.60462
vn 0 1 0
vn -0.34907 0.71595 0.60462
vn 0 1 0
vn 0.86603 0 -0.50000
vn -0.86603 0 -0.50000
vn 0.86603 0 0.50000
vn -0.86603 0 0.50000
vn 0 0 1
vn -0.00002 -0.00002 -1
vn 0.64752 -0.66405 -0.37384
vn -0.64754 -0.66402 -0.37385
vn 0.64750 0.66408 -0.37382
vn -0.64750 0.66408 -0.37383
vn 0.64752 -0.66405 0.37384
vn -0.64754 -0.66402 0.37385
vn 0.64752 0.66405 0.37384
vn -0.64752 0.66405 0.37384
vn 0 -0.66402 0.74771
vn 0 0.66402 0.74771
vn 0 -0.66402 -0.74771
vn 0 0.66433 -0.74744
vn 0 -1 0
vn 0 1 0
vn 0 1 0
vn 0 1 0
vn 0 1 0
vn 0.64750 0.66408 -0.37382
vn 0.64750 0.66408 -0.37382
vn 0.64750 0.66408 -0.37382
vn 0.64750 0.66408 -0.37382
vn 0.64750 0.66408 -0.37382
vn 0.64750 0.66408 -0.37382
vn 0.86603 0 -0.50000
vn 0.86603 0 -0.50000
vn 0.86603 0 -0.50000
vn -0.00002 -0.00002 -1
vn -0.00002 -0.00002 -1
vn -0.00002 -0.00002 -1
vn -0.00002 -0.00002 -1
vn 0 1 0
vn 0 1 0
vn 0 1 0
vn 0 1 0
vn 0 1 0
vn 0 1 0
vn 0 1 0
vn 0 1 0
vn 0 1 0
vn 0 1 0
vn 0 1 0
vn 0 1 0
vn 0 1 0
vn 0 1 0
vn 0 1 0
vn 0 1 0
vn 0 1 0
vn 0 1 0
vn 0 1 0
vn 0 1 0
vn 0 1 0
vn 0 1 0
vn 0 1 0
vn -0.86603 0 0.50000
vn -0.86603 0 0.50000
vn -0.86603 0 0.50000
vn 0 0 1
vn 0 0 1
vn 0 0 1
vn 0 0 1
vn 0 0 1
vn 0 0 1
vn 0 0 1
vn 0 0 1
vn 0 0 1
vn 0 0 1
vn 0 1 0
vn 0 1 0
vn 0 1 0
vn 0 1 0
vn 0 1 0
vn 0 1 0
vn 0 1 0
vn 0 1 0
vn 0 1 0
vn 0 1 0
vn 0 1 0
vn 0 1 0
vn 0 1 0
vn 0 1 0
vn 0.86603 0 0.50000
vn 0.86603 0 0.50000
vn 0.86603 0 0.50000
vn 0.86603 0 -0.50000
vn 0.86603 0 -0.50000
vn 0.86603 0 -0.50000
vn 0.86603 0 0.50000
vn 0.86603 0 0.50000
vn 0.86603 0 0.50000
vn 0.86603 0 0.50000
vn 0.86603 0 0.50000
vn 0.86603 0 0.50000
vn 0.86603 0 0.50000
vn 0.86603 0 0.50000
vn 0.86603 0 0.50000
vn 0.86603 0 0.50000
vn 0.86603 0 0.50000
vn 0.86603 0 0.50000
vn 0.64752 0.66405 0.37384
vn 0 1 0
vn 0 1 0
vn 0 1 0
vn 0 1 0
vn 0 1 0
vn 0 1 0
vn 0 1 0
vn 0 1 0
vn 0 1 0
vn 0 1 0
vn 0 1 0
vn 0 1 0
vn 0 1 0

# No. texture coordinates 0:

# No. faces 20:

usemtl ___default___

f 7//27 3//23 1//21 5//25
f 6//26 2//22 4//24 8//28
f 3//23 11//31 9//29 1//21
f 2//22 10//30 12//32 4//24
f 10//30 9//29 11//31 12//32
f 8//28 7//27 5//25 6//26
f 1//21 15//37 17//41 5//25
f 6//26 18//43 16//39 2//22
f 19//45 21//49 3//23 7//27
f 8//28 4//24 22//51 20//47
f 9//29 13//33 15//37 1//21
f 2//22 16//39 14//35 10//30
f 21//49 23//53 11//31 3//23
f 4//24 12//32 24//55 22//51
f 14//35 13//33 9//29 10//30
f 12//32 11//31 23//53 24//55
f 6//26 5//25 17//41 18//43
f 20//47 19//45 7//27 8//28
f 14//36 16//40 18//44 17//42 15//38 13//34
f 20//48 22//52 24//56 23//54 21//50 19//46

# End of Object "HighPoly"
